<svg xmlns="http://www.w3.org/2000/svg" width="81" height="80" viewBox="0 0 81 80" fill="none"><g clip-path="url(#clip0_135_120)"><path d="M20.6048 44.1605V35.1698C20.6048 28.6031 25.9473 23.2605 32.5144 23.2605H47.9856C54.5525 23.2605 59.8952 28.603 59.8952 35.1698V44.1605H63.3327V26.7884C63.3327 16.6608 57.752 7.46469 48.7686 2.78906L46.2087 1.45656C42.4777 -0.485469 38.0225 -0.485625 34.2913 1.45672L31.7316 2.78906C22.7491 7.465 17.1675 16.6612 17.1675 26.7884V44.1605H20.6048ZM33.3186 5.83828C33.3188 5.83828 33.3188 5.83812 33.3186 5.83828L35.8783 4.50594C38.6159 3.08094 41.8842 3.08109 44.6217 4.50578L47.1816 5.83828C54.6262 9.71297 59.3905 17.1447 59.8545 25.4517C57.0377 22.0178 52.7633 19.823 47.9856 19.823H32.5144C27.7367 19.823 23.4623 22.0178 20.6455 25.4517C21.1095 17.1447 25.8739 9.71297 33.3186 5.83828Z" fill="#2AE5F9"></path><path d="M69.7841 50.923V54.3695C73.725 54.7636 76.8125 58.0988 76.8125 62.142V76.5613H69.7841V78.28C69.7841 79.2292 69.0145 79.9988 68.0653 79.9988H78.5313C79.4805 79.9988 80.25 79.2292 80.25 78.28V62.142C80.25 56.2027 75.6223 51.3269 69.7841 50.923Z" fill="#2AE5F9"></path><path d="M10.7159 78.28V76.5613H3.6875V62.142C3.6875 58.0989 6.775 54.7638 10.7159 54.3695V50.923C4.87766 51.3269 0.25 56.2027 0.25 62.142V78.28C0.25 79.2292 1.01953 79.9988 1.96875 79.9988H12.4347C11.4855 79.9988 10.7159 79.2292 10.7159 78.28Z" fill="#2AE5F9"></path><path d="M68.0653 44.1605H51.0727C52.6661 41.3269 53.5461 37.9034 53.5461 34.3506C53.5461 31.5953 53.5816 27.6969 53.6144 24.678C52.5578 24.1089 51.4059 23.695 50.1895 23.4661C50.1895 23.4661 50.1084 31.2266 50.1084 34.3506C50.1084 38.0866 48.9661 41.6152 46.9538 44.1605H33.5456C31.5333 41.615 30.3909 38.0866 30.3909 34.3506C30.3909 31.2211 30.3097 23.4659 30.3097 23.4659C29.0934 23.6948 27.9416 24.1088 26.885 24.678C26.9178 27.6969 26.9533 31.5953 26.9533 34.3506C26.9533 37.9034 27.8333 41.3269 29.4267 44.1605H12.4347C11.4855 44.1605 10.7159 44.93 10.7159 45.8792V78.28C10.7159 79.2292 11.4855 79.9988 12.4347 79.9988H68.0653C69.0145 79.9988 69.7841 79.2292 69.7841 78.28L69.7839 45.8792C69.7841 44.9298 69.0145 44.1605 68.0653 44.1605ZM66.3466 76.5612H14.1534V47.598H66.3464L66.3466 76.5612Z" fill="white"></path></g><defs><clipPath id="clip0_135_120"><rect width="80" height="80" fill="white" transform="translate(0.25)"></rect></clipPath></defs></svg>