<svg xmlns="http://www.w3.org/2000/svg" width="81" height="80" viewBox="0 0 81 80" fill="none"><g clip-path="url(#clip0_135_112)"><path d="M53.624 80H35.9922C35.043 80 34.2735 79.2305 34.2735 78.2813C34.2735 74.175 32.6744 70.3145 29.7708 67.4109L25.711 63.3511C23.1963 60.8364 23.1238 56.7353 25.5494 54.2091C27.7638 51.8048 31.7697 51.5497 34.2735 53.6291V38.0316C34.2735 34.4855 37.1133 31.5342 40.604 31.4528C44.1471 31.292 47.3147 34.3941 47.2416 37.9352V51.9536L55.803 55.6872C58.9651 56.9614 60.6407 60.4359 59.7023 63.7825C59.7094 63.8023 55.2694 78.7467 55.2721 78.7686C55.0563 79.4989 54.3855 80 53.624 80ZM37.6341 76.5625H52.3398L56.3955 62.8442C56.8466 61.2159 56.0176 59.4719 54.5046 58.87C54.4858 58.8617 44.8668 54.6691 44.8358 54.6545C44.2093 54.3813 43.8041 53.7627 43.8041 53.0791V37.935C43.8394 36.2736 42.3458 34.8105 40.6841 34.8894C39.0447 34.9275 37.711 36.337 37.711 38.0314V57.7222C37.711 58.4173 37.2922 59.0441 36.6499 59.3102C36.0077 59.5759 35.2683 59.4291 34.7768 58.9377L32.383 56.5439C31.2319 55.3433 29.1548 55.3648 28.029 56.59C26.8898 57.7766 26.9402 59.7192 28.1416 60.9206C33.118 65.7878 36.9276 69.1828 37.6341 76.5625Z" fill="white"></path><path d="M47.7174 24.8814C47.9121 25.1037 40.8276 22.757 40.7501 22.7598L34.3013 24.8012C33.781 24.9659 33.2138 24.8739 32.7723 24.5531C32.3308 24.2325 32.068 23.7212 32.0638 23.1758L32.0126 16.4117L28.0782 10.9092C27.7608 10.4655 27.673 9.89734 27.8416 9.37844C28.0102 8.85953 28.4151 8.45141 28.9327 8.27891L35.3499 6.13984L39.3671 0.697812C39.6913 0.259062 40.2044 0 40.7501 0C41.2957 0 41.8088 0.259062 42.1329 0.697969L46.1501 6.14L52.5673 8.27906C53.0848 8.45156 53.4897 8.85969 53.6583 9.37859C53.8269 9.8975 53.7393 10.4655 53.4218 10.9094L49.4874 16.4117L49.4362 23.1758C49.4491 24.0942 48.6312 24.9009 47.7174 24.8814ZM40.7501 19.2383C40.689 19.0683 45.8677 20.7948 46.0166 20.8212L46.0544 15.8414C46.0571 15.4873 46.169 15.1428 46.3751 14.8548L49.2716 10.8039L44.5469 9.22906C44.2112 9.11703 43.918 8.90406 43.7076 8.61937L40.7501 4.61266L37.7924 8.61922C37.5821 8.90406 37.289 9.11687 36.953 9.22891L32.2287 10.8037L35.1252 14.8547C35.3312 15.1427 35.4432 15.4873 35.4458 15.8412L35.4837 20.8211C35.6676 20.7881 40.7621 19.0772 40.7501 19.2383Z" fill="#33CCCC"></path><path d="M74.7249 37.5888C74.9204 37.8113 67.8347 35.4642 67.7576 35.4672L61.3088 37.5086C60.7887 37.6733 60.2212 37.5811 59.7797 37.2605C59.3383 36.9398 59.0755 36.4286 59.0713 35.8831L59.0201 29.1191L55.0857 23.6167C54.7683 23.173 54.6807 22.6047 54.8493 22.0859C55.0179 21.567 55.4227 21.1591 55.9404 20.9866L62.3574 18.8475L66.3746 13.4055C66.6987 12.9664 67.2118 12.7075 67.7574 12.7075C68.303 12.7075 68.8162 12.9666 69.1402 13.4055L73.1574 18.8475L79.5746 20.9866C80.0922 21.1591 80.4971 21.567 80.6657 22.0859C80.8343 22.6048 80.7466 23.173 80.4291 23.6167L76.4949 29.1191L76.4435 35.8831C76.4566 36.8016 75.6388 37.6084 74.7249 37.5888ZM67.7576 31.9458C67.6963 31.7758 72.8752 33.5025 73.0241 33.5289L73.0619 28.5491C73.0646 28.195 73.1765 27.8505 73.3824 27.5625L76.279 23.5116L71.5544 21.9367C71.2187 21.8248 70.9255 21.6119 70.7151 21.3269L67.7574 17.3203L64.7997 21.3269C64.5894 21.6117 64.2963 21.8247 63.9605 21.9367L59.2362 23.5116L62.1327 27.5625C62.3387 27.8505 62.4507 28.1952 62.4533 28.5491L62.4912 33.5289C62.6751 33.4956 67.7696 31.7845 67.7576 31.9458Z" fill="#33CCCC"></path><path d="M6.77522 37.5887C5.86131 37.6083 5.04365 36.8017 5.05647 35.883L5.00506 29.1191L1.07068 23.6167C0.75334 23.173 0.665528 22.6047 0.834122 22.0859C1.00272 21.567 1.40756 21.1591 1.92522 20.9866L8.3424 18.8475L12.3597 13.4055C12.6838 12.9664 13.1969 12.7075 13.7426 12.7075C14.2882 12.7075 14.8013 12.9666 15.1254 13.4055L19.1426 18.8475L25.5596 20.9866C26.0771 21.1591 26.4821 21.567 26.6507 22.0859C26.8193 22.6048 26.7316 23.173 26.4143 23.6167L22.4799 29.1191L22.4287 35.8831C22.4246 36.4287 22.1616 36.9398 21.7202 37.2605C21.2788 37.5811 20.7112 37.6731 20.1912 37.5086L13.7424 35.4672C13.6618 35.4648 6.59506 37.8077 6.77522 37.5887ZM5.22115 23.5114L8.11772 27.5623C8.32365 27.8503 8.43553 28.195 8.43818 28.5489L8.476 33.5287L13.2238 32.0258C13.5613 31.9189 13.9237 31.9189 14.2613 32.0258L19.0091 33.5287L19.0469 28.5489C19.0496 28.1948 19.1615 27.8503 19.3676 27.5623L22.2641 23.5114L17.5397 21.9366C17.204 21.8245 16.9108 21.6117 16.7005 21.3267L13.7429 17.3202L10.7852 21.3267C10.5749 21.6116 10.2818 21.8247 9.946 21.9366L5.22115 23.5114Z" fill="#33CCCC"></path></g><defs><clipPath id="clip0_135_112"><rect width="80" height="80" fill="white" transform="translate(0.75)"></rect></clipPath></defs></svg>