<svg xmlns="http://www.w3.org/2000/svg" width="81" height="80" viewBox="0 0 81 80" fill="none"><g clip-path="url(#clip0_135_129)"><path d="M74.2659 0H69.5006C68.5514 0 67.7819 0.769531 67.7819 1.71875V9.53062H7.23406C3.65875 9.53062 0.75 12.4394 0.75 16.0145V73.5159C0.75 77.0913 3.65875 80 7.23406 80H11.9994C12.9486 80 13.7181 79.2305 13.7181 78.2813V75.2347H74.2659C77.8413 75.2347 80.75 72.3259 80.75 68.7506V6.48406C80.75 2.90875 77.8413 0 74.2659 0ZM71.2194 3.4375H74.2659C75.9458 3.4375 77.3125 4.80422 77.3125 6.48406C77.3125 8.16391 75.9458 9.53062 74.2659 9.53062H71.2194V3.4375ZM10.2806 76.5625H7.23406C5.55422 76.5625 4.1875 75.1958 4.1875 73.5159V21.7373C5.09625 22.2231 6.13359 22.4988 7.23406 22.4988H10.2806V76.5625ZM74.2659 71.7972H13.7181V20.78C13.7181 19.8308 12.9486 19.0612 11.9994 19.0612H7.23406C5.55422 19.0612 4.1875 17.6945 4.1875 16.0147C4.1875 14.3348 5.55422 12.9683 7.23406 12.9683H74.2659C75.3666 12.9683 76.4036 12.6917 77.3125 12.2059V68.7508C77.3125 70.4305 75.9458 71.7972 74.2659 71.7972Z" fill="white"></path><path d="M69.5006 19.0612H21.53C20.5808 19.0612 19.8112 19.8308 19.8112 20.78V63.9855C19.8112 64.9347 20.5808 65.7042 21.53 65.7042H31.0606C32.0098 65.7042 32.7794 64.9347 32.7794 63.9855C32.7794 63.0362 32.0098 62.2667 31.0606 62.2667H23.2488V41.7187H26.2953C27.2445 41.7187 28.0141 40.9492 28.0141 40C28.0141 39.0508 27.2445 38.2813 26.2953 38.2813H23.2488V22.4988H39.0313L39.0314 38.2813H35.8258C34.8766 38.2813 34.107 39.0508 34.107 40C34.107 40.9492 34.8766 41.7187 35.8258 41.7187H48.5619V44.7653C48.5619 45.7145 49.3314 46.4841 50.2806 46.4841C51.2298 46.4841 51.9994 45.7145 51.9994 44.7653V40C51.9994 39.0508 51.2298 38.2813 50.2806 38.2813H42.4689L42.4687 22.4988H67.7819V38.2813H59.8112C58.862 38.2813 58.0925 39.0508 58.0925 40C58.0925 40.9492 58.862 41.7187 59.8112 41.7187H67.7819V62.2666H51.9994V54.2958C51.9994 53.3466 51.2298 52.577 50.2806 52.577C49.3314 52.577 48.5619 53.3466 48.5619 54.2958V62.2666H40.75C39.8008 62.2666 39.0313 63.0361 39.0313 63.9853C39.0313 64.9345 39.8008 65.7041 40.75 65.7041H69.5006C70.4498 65.7041 71.2194 64.9345 71.2194 63.9853V20.78C71.2194 19.8306 70.4498 19.0612 69.5006 19.0612Z" fill="#2AE5F9"></path></g><defs><clipPath id="clip0_135_129"><rect width="80" height="80" fill="white" transform="translate(0.75)"></rect></clipPath></defs></svg>