<svg xmlns="http://www.w3.org/2000/svg" width="81" height="80" viewBox="0 0 81 80" fill="none"><g clip-path="url(#clip0_135_137)"><path d="M76.7098 32.8536C75.9556 16.3978 62.3333 3.24219 45.6945 3.24219H34.8056C18.1669 3.24219 4.54469 16.398 3.79031 32.8536C1.73359 33.5561 0.25 35.5062 0.25 37.7978V50.0806C0.25 52.9613 2.59375 55.305 5.47453 55.305H15.0052C15.9544 55.305 16.7239 54.5355 16.7239 53.5862V34.2922C16.7239 33.343 15.9544 32.5734 15.0052 32.5734H7.24828C8.13875 18.1456 20.1573 6.67969 34.8055 6.67969H45.6944C60.3427 6.67969 72.3611 18.1455 73.2516 32.5734H65.4947C64.5455 32.5734 63.7759 33.343 63.7759 34.2922V53.5862C63.7759 54.5355 64.5455 55.305 65.4947 55.305H75.0253C77.9059 55.305 80.2497 52.9613 80.2497 50.0806V37.7978C80.25 35.5062 78.7664 33.5561 76.7098 32.8536ZM13.2864 51.8675H5.47453C4.48922 51.8675 3.6875 51.0659 3.6875 50.0806V37.7978C3.6875 36.8125 4.48922 36.0109 5.47453 36.0109H13.2864V51.8675ZM76.8125 50.0806C76.8125 51.0659 76.0108 51.8675 75.0256 51.8675H67.2138V36.0109H75.0256C76.0109 36.0109 76.8125 36.8125 76.8125 37.7978V50.0806Z" fill="#2AE5F9"></path><path d="M40.25 76.7616C39.7441 76.7616 39.2638 76.5386 38.9372 76.1522L30.7953 66.5161H19.1444C15.9142 66.5161 13.2864 63.8883 13.2864 60.6583V29.3845C13.2864 26.1544 15.9142 23.5266 19.1444 23.5266H61.3559C64.5859 23.5266 67.2138 26.1544 67.2138 29.3845V60.6581C67.2138 63.8881 64.5859 66.5159 61.3559 66.5159H49.705L41.5631 76.152C41.2363 76.5386 40.7559 76.7616 40.25 76.7616ZM19.1442 26.9641C17.8095 26.9641 16.7238 28.0498 16.7238 29.3845V60.6581C16.7238 61.9927 17.8095 63.0784 19.1442 63.0784H31.5931C32.0991 63.0784 32.5794 63.3014 32.9059 63.6878L40.25 72.3797L47.5941 63.688C47.9206 63.3014 48.4009 63.0786 48.9069 63.0786H61.3558C62.6903 63.0786 63.7761 61.9928 63.7761 60.6583V29.3845C63.7761 28.0498 62.6903 26.9641 61.3558 26.9641H19.1442Z" fill="white"></path><path d="M30.5328 40.4847C29.1792 40.4978 28.3392 38.9291 29.1048 37.8112C29.7508 36.7995 31.3173 36.8059 31.9627 37.8112C32.727 38.9306 31.8872 40.4981 30.5328 40.4847Z" fill="white"></path><path d="M48.9577 40.4847C47.7656 40.5106 46.8861 39.2005 47.3702 38.1081C47.9349 36.7063 49.9803 36.7053 50.5436 38.1081C51.03 39.1986 50.1489 40.5106 48.9577 40.4847Z" fill="white"></path><path d="M40.25 55.0337C36.2953 55.0337 32.3408 53.4698 28.8138 50.3419C28.1036 49.7122 28.0384 48.6259 28.6683 47.9156C29.2978 47.2055 30.3842 47.1403 31.0945 47.7702C36.8272 52.8539 43.6728 52.8542 49.4055 47.7702C50.1159 47.1403 51.2019 47.2055 51.8317 47.9156C52.4616 48.6259 52.3964 49.7122 51.6863 50.3419C48.1594 53.4698 44.2047 55.0337 40.25 55.0337Z" fill="white"></path></g><defs><clipPath id="clip0_135_137"><rect width="80" height="80" fill="white" transform="translate(0.25)"></rect></clipPath></defs></svg>